<?xml version="1.0" encoding="UTF-8" standalone="no"?>
<svg width="128" height="128" viewBox="0 0 128 128" fill="none" xmlns="http://www.w3.org/2000/svg">
  <rect width="128" height="128" fill="#5A9C52"/>
  <rect x="16" y="16" width="96" height="96" fill="#70BE63"/>
  <rect x="32" y="32" width="64" height="64" fill="#8AC97C"/>
  
  <!-- Snippet icon on top -->
  <g transform="translate(40, 40) scale(3)">
    <path d="M2 2L0 4L2 6L4 4L2 2Z" fill="#3C3C3C"/>
    <path d="M10 2L8 4L10 6L12 4L10 2Z" fill="#3C3C3C"/>
    <path d="M10 10L8 12L10 14L12 12L10 10Z" fill="#3C3C3C"/>
    <path d="M2 10L0 12L2 14L4 12L2 10Z" fill="#3C3C3C"/>
    <path d="M6 6L2 10L6 14L10 10L6 6Z" fill="#3C3C3C"/>
    <path d="M10 2L6 6L10 10L14 6L10 2Z" fill="#3C3C3C"/>
    <path d="M6 0L2 4L6 8L10 4L6 0Z" fill="#3C3C3C"/>
  </g>
</svg>