<?xml version="1.0" encoding="UTF-8" standalone="no"?>
<svg width="16" height="16" viewBox="0 0 16 16" fill="none" xmlns="http://www.w3.org/2000/svg">
  <path fill-rule="evenodd" clip-rule="evenodd" d="M13.6 8.79L8 14.38L1.62 8L7.21 2.4C7.59 2.01 8.19 1.8 8.8 2L13.6 3.2C13.89 3.27 14.13 3.51 14.2 3.8L15.4 8.6C15.6 9.21 15.39 9.81 15 10.2L13.6 8.79ZM11.5 6.5C12.3284 6.5 13 5.82843 13 5C13 4.17157 12.3284 3.5 11.5 3.5C10.6716 3.5 10 4.17157 10 5C10 5.82843 10.6716 6.5 11.5 6.5Z" fill="#424242"/>
</svg>